<?xml version="1.0" encoding="utf-8"?>
<!DOCTYPE svg PUBLIC "-//W3C//DTD SVG 1.1//EN" "http://www.w3.org/Graphics/SVG/1.1/DTD/svg11.dtd">
<svg version="1.1" xmlns="http://www.w3.org/2000/svg" xmlns:xlink="http://www.w3.org/1999/xlink" x="0px" y="0px" viewBox="0 0 1000 1000" enable-background="new 0 0 1000 1000" xml:space="preserve">
	<g>
		<g transform="translate(0.000000,512.000000) scale(0.100000,-0.100000)">
			<path fill="#fff" d="M1992.9,4987.3C1044,4840.1,275,4065.3,131.6,3110.8c-42.1-279.3-42.1-5700.6,0-5979.8c145.4-964.1,914.4-1733.1,1878.5-1878.5c279.3-42.1,5700.6-42.1,5979.9,0c964.1,145.4,1733.1,914.4,1878.5,1878.5c42.1,279.3,42.1,5700.6,0,5979.8c-145.4,964.1-914.4,1733.1-1878.5,1878.5C7724,5029.4,2251.1,5029.4,1992.9,4987.3z M8070.3,4564.6c711.6-191.3,1230-726.9,1381.1-1421.3c32.5-153,34.4-323.3,34.4-3022.5c0-2699.1-1.9-2869.4-34.4-3022.4c-78.4-363.5-231.5-638.9-510.8-918.2c-279.3-279.3-554.8-432.3-918.2-510.8c-153-32.5-323.3-34.4-3022.5-34.4c-2699.2,0-2869.4,1.9-3022.4,34.4c-707.8,153-1260.6,702.1-1427.1,1419.4c-34.4,145.4-36.3,292.7-36.3,3041.6v2888.5l42.1,168.3c195.1,759.4,818.7,1319.9,1572.4,1409.8c68.9,7.6,1400.3,13.4,2957.4,11.5l2831.2-3.8L8070.3,4564.6z"/>
			<path fill="#fff" d="M3896.2,2140.9c-126.2-57.4-120.5,53.6-120.5-2023.9c0-1821.1,1.9-1882.3,36.3-1939.7c53.6-89.9,149.2-116.7,248.7-70.8c42.1,19.1,719.3,447.6,1501.7,952.6C6761.8-169.9,6993.3-13.1,7020.1,40.5c30.6,67,24.9,141.6-19.1,200.8c-38.3,51.7-2936.4,1907.2-2993.8,1916.8C3980.4,2163.8,3930.7,2156.2,3896.2,2140.9z M5315.6,855.4c616-396,1119.1-726.9,1119.1-734.6C6434.7,107.4,4208-1333,4187-1333c-5.7,0-9.6,654.2-9.6,1453.8c0,799.6,3.8,1453.8,9.6,1453.8C4192.7,1574.7,4699.7,1251.4,5315.6,855.4z"/>
		</g>
	</g>
</svg>